<?xml version="1.0" encoding="UTF-8" standalone="no"?>
<!DOCTYPE svg PUBLIC "-//W3C//DTD SVG 1.1//EN"
 "http://www.w3.org/Graphics/SVG/1.1/DTD/svg11.dtd">
<!-- Generated by graphviz version 2.40.1 (0)
 -->
<!-- Title: %3 Pages: 1 -->
<svg width="896pt" height="332pt"
 viewBox="0.00 0.00 896.00 332.00" xmlns="http://www.w3.org/2000/svg" xmlns:xlink="http://www.w3.org/1999/xlink">
<g id="graph0" class="graph" transform="scale(1 1) rotate(0) translate(4 328)">
<title>%3</title>
<polygon fill="#ffffff" stroke="transparent" points="-4,4 -4,-328 892,-328 892,4 -4,4"/>
<!-- [root] kubernetes_ingress.example_ingress -->
<g id="node1" class="node">
<title>[root] kubernetes_ingress.example_ingress</title>
<polygon fill="none" stroke="#000000" points="282,-180 0,-180 0,-144 282,-144 282,-180"/>
<text text-anchor="middle" x="141" y="-158.3" font-family="Times,serif" font-size="14.00" fill="#000000">kubernetes_ingress.example_ingress</text>
</g>
<!-- [root] provider.kubernetes -->
<g id="node6" class="node">
<title>[root] provider.kubernetes</title>
<polygon fill="none" stroke="#000000" points="382,-36 234.0314,-18 382,0 529.9686,-18 382,-36"/>
<text text-anchor="middle" x="382" y="-14.3" font-family="Times,serif" font-size="14.00" fill="#000000">provider.kubernetes</text>
</g>
<!-- [root] kubernetes_ingress.example_ingress&#45;&gt;[root] provider.kubernetes -->
<g id="edge1" class="edge">
<title>[root] kubernetes_ingress.example_ingress&#45;&gt;[root] provider.kubernetes</title>
<path fill="none" stroke="#000000" d="M171.5228,-143.7623C216.7393,-116.745 301.2266,-66.263 348.2391,-38.1725"/>
<polygon fill="#000000" stroke="#000000" points="350.0522,-41.1664 356.8413,-33.0326 346.4617,-35.1573 350.0522,-41.1664"/>
</g>
<!-- [root] kubernetes_pod.mongo -->
<g id="node2" class="node">
<title>[root] kubernetes_pod.mongo</title>
<polygon fill="none" stroke="#000000" points="711,-108 527,-108 527,-72 711,-72 711,-108"/>
<text text-anchor="middle" x="619" y="-86.3" font-family="Times,serif" font-size="14.00" fill="#000000">kubernetes_pod.mongo</text>
</g>
<!-- [root] kubernetes_pod.mongo&#45;&gt;[root] provider.kubernetes -->
<g id="edge2" class="edge">
<title>[root] kubernetes_pod.mongo&#45;&gt;[root] provider.kubernetes</title>
<path fill="none" stroke="#000000" d="M559.5008,-71.9243C520.8589,-60.185 470.9792,-45.0317 433.94,-33.7792"/>
<polygon fill="#000000" stroke="#000000" points="434.9207,-30.4193 424.3351,-30.8613 432.8859,-37.117 434.9207,-30.4193"/>
</g>
<!-- [root] var.mongo_image -->
<g id="node7" class="node">
<title>[root] var.mongo_image</title>
<polygon fill="none" stroke="#000000" points="684,-36 548,-36 548,0 690,0 690,-30 684,-36"/>
<polyline fill="none" stroke="#000000" points="684,-36 684,-30 "/>
<polyline fill="none" stroke="#000000" points="690,-30 684,-30 "/>
<text text-anchor="middle" x="619" y="-14.3" font-family="Times,serif" font-size="14.00" fill="#000000">var.mongo_image</text>
</g>
<!-- [root] kubernetes_pod.mongo&#45;&gt;[root] var.mongo_image -->
<g id="edge3" class="edge">
<title>[root] kubernetes_pod.mongo&#45;&gt;[root] var.mongo_image</title>
<path fill="none" stroke="#000000" d="M619,-71.8314C619,-64.131 619,-54.9743 619,-46.4166"/>
<polygon fill="#000000" stroke="#000000" points="622.5001,-46.4132 619,-36.4133 615.5001,-46.4133 622.5001,-46.4132"/>
</g>
<!-- [root] var.mongodb_host -->
<g id="node8" class="node">
<title>[root] var.mongodb_host</title>
<polygon fill="none" stroke="#000000" points="849.5,-36 708.5,-36 708.5,0 855.5,0 855.5,-30 849.5,-36"/>
<polyline fill="none" stroke="#000000" points="849.5,-36 849.5,-30 "/>
<polyline fill="none" stroke="#000000" points="855.5,-30 849.5,-30 "/>
<text text-anchor="middle" x="782" y="-14.3" font-family="Times,serif" font-size="14.00" fill="#000000">var.mongodb_host</text>
</g>
<!-- [root] kubernetes_pod.mongo&#45;&gt;[root] var.mongodb_host -->
<g id="edge4" class="edge">
<title>[root] kubernetes_pod.mongo&#45;&gt;[root] var.mongodb_host</title>
<path fill="none" stroke="#000000" d="M660.1318,-71.8314C681.9321,-62.2018 708.8878,-50.295 731.9004,-40.1299"/>
<polygon fill="#000000" stroke="#000000" points="733.4308,-43.2802 741.164,-36.038 730.6024,-36.877 733.4308,-43.2802"/>
</g>
<!-- [root] kubernetes_pod.node -->
<g id="node3" class="node">
<title>[root] kubernetes_pod.node</title>
<polygon fill="none" stroke="#000000" points="475,-108 305,-108 305,-72 475,-72 475,-108"/>
<text text-anchor="middle" x="390" y="-86.3" font-family="Times,serif" font-size="14.00" fill="#000000">kubernetes_pod.node</text>
</g>
<!-- [root] kubernetes_pod.node&#45;&gt;[root] provider.kubernetes -->
<g id="edge5" class="edge">
<title>[root] kubernetes_pod.node&#45;&gt;[root] provider.kubernetes</title>
<path fill="none" stroke="#000000" d="M387.9813,-71.8314C387.1125,-64.0125 386.0769,-54.6923 385.1136,-46.0221"/>
<polygon fill="#000000" stroke="#000000" points="388.5734,-45.4657 383.9904,-35.9134 381.6162,-46.2388 388.5734,-45.4657"/>
</g>
<!-- [root] kubernetes_service.mongo -->
<g id="node4" class="node">
<title>[root] kubernetes_service.mongo</title>
<polygon fill="none" stroke="#000000" points="723.5,-180 514.5,-180 514.5,-144 723.5,-144 723.5,-180"/>
<text text-anchor="middle" x="619" y="-158.3" font-family="Times,serif" font-size="14.00" fill="#000000">kubernetes_service.mongo</text>
</g>
<!-- [root] kubernetes_service.mongo&#45;&gt;[root] kubernetes_pod.mongo -->
<g id="edge6" class="edge">
<title>[root] kubernetes_service.mongo&#45;&gt;[root] kubernetes_pod.mongo</title>
<path fill="none" stroke="#000000" d="M619,-143.8314C619,-136.131 619,-126.9743 619,-118.4166"/>
<polygon fill="#000000" stroke="#000000" points="622.5001,-118.4132 619,-108.4133 615.5001,-118.4133 622.5001,-118.4132"/>
</g>
<!-- [root] kubernetes_service.node -->
<g id="node5" class="node">
<title>[root] kubernetes_service.node</title>
<polygon fill="none" stroke="#000000" points="496,-180 300,-180 300,-144 496,-144 496,-180"/>
<text text-anchor="middle" x="398" y="-158.3" font-family="Times,serif" font-size="14.00" fill="#000000">kubernetes_service.node</text>
</g>
<!-- [root] kubernetes_service.node&#45;&gt;[root] kubernetes_pod.node -->
<g id="edge7" class="edge">
<title>[root] kubernetes_service.node&#45;&gt;[root] kubernetes_pod.node</title>
<path fill="none" stroke="#000000" d="M395.9813,-143.8314C395.1257,-136.131 394.1083,-126.9743 393.1574,-118.4166"/>
<polygon fill="#000000" stroke="#000000" points="396.6289,-117.9656 392.0459,-108.4133 389.6717,-118.7386 396.6289,-117.9656"/>
</g>
<!-- [root] var.mongodb_port -->
<g id="node9" class="node">
<title>[root] var.mongodb_port</title>
<polygon fill="none" stroke="#000000" points="882,-180 742,-180 742,-144 888,-144 888,-174 882,-180"/>
<polyline fill="none" stroke="#000000" points="882,-180 882,-174 "/>
<polyline fill="none" stroke="#000000" points="888,-174 882,-174 "/>
<text text-anchor="middle" x="815" y="-158.3" font-family="Times,serif" font-size="14.00" fill="#000000">var.mongodb_port</text>
</g>
<!-- [root] meta.count&#45;boundary (EachMode fixup) -->
<g id="node10" class="node">
<title>[root] meta.count&#45;boundary (EachMode fixup)</title>
<ellipse fill="none" stroke="#000000" cx="619" cy="-234" rx="224.4604" ry="18"/>
<text text-anchor="middle" x="619" y="-230.3" font-family="Times,serif" font-size="14.00" fill="#000000">[root] meta.count&#45;boundary (EachMode fixup)</text>
</g>
<!-- [root] meta.count&#45;boundary (EachMode fixup)&#45;&gt;[root] kubernetes_ingress.example_ingress -->
<g id="edge8" class="edge">
<title>[root] meta.count&#45;boundary (EachMode fixup)&#45;&gt;[root] kubernetes_ingress.example_ingress</title>
<path fill="none" stroke="#000000" d="M513.5091,-218.1102C441.9405,-207.33 346.8548,-193.0074 270.6654,-181.5312"/>
<polygon fill="#000000" stroke="#000000" points="270.931,-178.0318 260.5212,-180.0032 269.8883,-184.9537 270.931,-178.0318"/>
</g>
<!-- [root] meta.count&#45;boundary (EachMode fixup)&#45;&gt;[root] kubernetes_service.mongo -->
<g id="edge9" class="edge">
<title>[root] meta.count&#45;boundary (EachMode fixup)&#45;&gt;[root] kubernetes_service.mongo</title>
<path fill="none" stroke="#000000" d="M619,-215.8314C619,-208.131 619,-198.9743 619,-190.4166"/>
<polygon fill="#000000" stroke="#000000" points="622.5001,-190.4132 619,-180.4133 615.5001,-190.4133 622.5001,-190.4132"/>
</g>
<!-- [root] meta.count&#45;boundary (EachMode fixup)&#45;&gt;[root] kubernetes_service.node -->
<g id="edge10" class="edge">
<title>[root] meta.count&#45;boundary (EachMode fixup)&#45;&gt;[root] kubernetes_service.node</title>
<path fill="none" stroke="#000000" d="M565.2199,-216.4789C534.5359,-206.4823 495.8464,-193.8776 463.4123,-183.3108"/>
<polygon fill="#000000" stroke="#000000" points="464.1555,-179.8719 453.5631,-180.102 461.987,-186.5276 464.1555,-179.8719"/>
</g>
<!-- [root] meta.count&#45;boundary (EachMode fixup)&#45;&gt;[root] var.mongodb_port -->
<g id="edge11" class="edge">
<title>[root] meta.count&#45;boundary (EachMode fixup)&#45;&gt;[root] var.mongodb_port</title>
<path fill="none" stroke="#000000" d="M666.947,-216.3868C693.9295,-206.4749 727.832,-194.0209 756.3842,-183.5323"/>
<polygon fill="#000000" stroke="#000000" points="757.6644,-186.7908 765.8443,-180.0572 755.2507,-180.2201 757.6644,-186.7908"/>
</g>
<!-- [root] provider.kubernetes (close) -->
<g id="node11" class="node">
<title>[root] provider.kubernetes (close)</title>
<ellipse fill="none" stroke="#000000" cx="210" cy="-234" rx="167.0704" ry="18"/>
<text text-anchor="middle" x="210" y="-230.3" font-family="Times,serif" font-size="14.00" fill="#000000">[root] provider.kubernetes (close)</text>
</g>
<!-- [root] provider.kubernetes (close)&#45;&gt;[root] kubernetes_ingress.example_ingress -->
<g id="edge12" class="edge">
<title>[root] provider.kubernetes (close)&#45;&gt;[root] kubernetes_ingress.example_ingress</title>
<path fill="none" stroke="#000000" d="M192.5884,-215.8314C184.479,-207.3694 174.6844,-197.1489 165.818,-187.8971"/>
<polygon fill="#000000" stroke="#000000" points="168.0921,-185.2115 158.646,-180.4133 163.0382,-190.0549 168.0921,-185.2115"/>
</g>
<!-- [root] provider.kubernetes (close)&#45;&gt;[root] kubernetes_service.mongo -->
<g id="edge13" class="edge">
<title>[root] provider.kubernetes (close)&#45;&gt;[root] kubernetes_service.mongo</title>
<path fill="none" stroke="#000000" d="M297.2391,-218.6425C358.3826,-207.8788 440.6495,-193.3967 506.6922,-181.7706"/>
<polygon fill="#000000" stroke="#000000" points="507.488,-185.1844 516.7298,-180.0036 506.2744,-178.2904 507.488,-185.1844"/>
</g>
<!-- [root] provider.kubernetes (close)&#45;&gt;[root] kubernetes_service.node -->
<g id="edge14" class="edge">
<title>[root] provider.kubernetes (close)&#45;&gt;[root] kubernetes_service.node</title>
<path fill="none" stroke="#000000" d="M255.5096,-216.5708C281.3671,-206.6679 313.9659,-194.1833 341.4554,-183.6554"/>
<polygon fill="#000000" stroke="#000000" points="342.8594,-186.8656 350.9462,-180.0206 340.3559,-180.3286 342.8594,-186.8656"/>
</g>
<!-- [root] root -->
<g id="node12" class="node">
<title>[root] root</title>
<ellipse fill="none" stroke="#000000" cx="414" cy="-306" rx="58.4896" ry="18"/>
<text text-anchor="middle" x="414" y="-302.3" font-family="Times,serif" font-size="14.00" fill="#000000">[root] root</text>
</g>
<!-- [root] root&#45;&gt;[root] meta.count&#45;boundary (EachMode fixup) -->
<g id="edge15" class="edge">
<title>[root] root&#45;&gt;[root] meta.count&#45;boundary (EachMode fixup)</title>
<path fill="none" stroke="#000000" d="M452.5589,-292.4574C482.6675,-281.8826 525.0316,-267.0036 559.4836,-254.9033"/>
<polygon fill="#000000" stroke="#000000" points="560.6991,-258.1861 568.9743,-251.57 558.3795,-251.5816 560.6991,-258.1861"/>
</g>
<!-- [root] root&#45;&gt;[root] provider.kubernetes (close) -->
<g id="edge16" class="edge">
<title>[root] root&#45;&gt;[root] provider.kubernetes (close)</title>
<path fill="none" stroke="#000000" d="M375.149,-292.2879C344.9278,-281.6216 302.5133,-266.6517 268.2357,-254.5538"/>
<polygon fill="#000000" stroke="#000000" points="269.3951,-251.2514 258.8003,-251.2236 267.0653,-257.8524 269.3951,-251.2514"/>
</g>
</g>
</svg>
